<svg id="Layer_1" data-name="Layer 1" xmlns="http://www.w3.org/2000/svg" viewBox="0 0 1000 1000"><defs><style>.cls-1{fill:#fff;}</style></defs><g id="Sickle-2"><g id="Glyph"><path class="cls-1" d="M846.05,135a15.28,15.28,0,0,0,21.43-.18,15.63,15.63,0,0,0,0-22.1h0l-44.2-44.19a15.74,15.74,0,0,0-22.1,0l-1,1a15.28,15.28,0,0,0,0,21.61l.22.22C812.87,103.32,832.44,121.86,846.05,135Z"/><path class="cls-1" d="M634.77,235,4.58,865.16a15.61,15.61,0,0,0,0,22.1h0l44.19,44.2a15.78,15.78,0,0,0,22.1,0l631.2-631.2C688.24,286.38,642.67,243.15,634.77,235Z"/><path class="cls-1" d="M724.15,278.17,834.69,167.64c-36-36.15-66.67-61.42-77.7-77a15.63,15.63,0,0,0-22.1,0h0l-88.39,88.4a15.62,15.62,0,0,0,0,22.09C659.15,217.45,688.93,242.79,724.15,278.17Z"/><path class="cls-1" d="M999.9,514.92c-3.18-147.22-77.28-253.31-143.54-324.76L745.88,300.65c60.86,65,130.16,157.84,155.67,283.13,23.61,116-7.66,139,13.8,150.45a15.63,15.63,0,0,0,18.43-2.73C967.16,698.12,1002.09,616.11,999.9,514.92Z"/></g></g></svg>