<?xml version="1.0" encoding="utf-8"?>
<!-- Generator: Adobe Illustrator 25.4.0, SVG Export Plug-In . SVG Version: 6.00 Build 0)  -->
<svg version="1.1" id="Layer_1" xmlns="http://www.w3.org/2000/svg" xmlns:xlink="http://www.w3.org/1999/xlink" x="0px" y="0px"
	 viewBox="0 0 420 197.8" style="enable-background:new 0 0 420 197.8;" xml:space="preserve">
<style type="text/css">
	.st0{fill:none;stroke:#242735;stroke-width:4;stroke-linejoin:round;}
</style>
<g id="Group_78" transform="translate(232.262 314.063)">
	<path id="Path_215" class="st0" d="M-76.3-186.8l30.1,1.2l9.7-78.5l-39.8,44.3L-76.3-186.8l30.2,19.8l-7,23.8v11.5L-82.7-121h31.3
		l13.4-16.9l13.2-31.1l-17.7-25.3l57.6-47l162.5-49l-301.9,27.1l-3.5-23.8l-38.6-22.3l-42.1,9.4l-11.5,11.3l6.7,2.1l-9.2,4.2
		l17.9,9.6l35.1,8.8l11.5-4.6l31.1,47.3"/>
	<path id="Path_216" class="st0" d="M-97.8-188.6l-26.9-24.4l-4.2-17.9l36-35.2L-97.8-188.6z"/>
	<line id="Line_3" class="st0" x1="15.3" y1="-241.4" x2="-49.6" y2="-270"/>
	<line id="Line_4" class="st0" x1="-96.5" y1="-210.1" x2="-76.3" y2="-203.4"/>
	<path id="Path_217" class="st0" d="M-81-205v20.2l33.3,22.6"/>
	<line id="Line_5" class="st0" x1="-124.1" y1="-263.3" x2="-120.6" y2="-239"/>
	<path id="Path_218" class="st0" d="M-127.6-287.1l-30.1,18.6l32.6-1.9"/>
	<path id="Path_219" class="st0" d="M-149.2-299.6l-49.3,4.1l-21.3,6.9"/>
	<path id="Path_220" class="st0" d="M-213-286.5l16.8,6.4l24.5-6.4l20.4,14.1l-21.6-10.5l-31.5,10.2"/>
	<line id="Line_6" class="st0" x1="-24.7" y1="-169" x2="-46.2" y2="-167.1"/>
	<line id="Line_7" class="st0" x1="-42.3" y1="-194.3" x2="-45" y2="-194.7"/>
	<line id="Line_8" class="st0" x1="-81" y1="-184.7" x2="-76.3" y2="-191.4"/>
	<line id="Line_9" class="st0" x1="-53.2" y1="-131.7" x2="-51.3" y2="-121"/>
	<path id="Path_221" class="st0" d="M-59.7-138.8l6.5-4.4l-14.3-3.6l-9.2,8.4l10.8-3.8L-59.7-138.8l1.4,9"/>
	<line id="Line_10" class="st0" x1="-65.8" y1="-142.4" x2="-67.5" y2="-146.9"/>
	<path id="Path_222" class="st0" d="M-97.8-188.6l-18.1,20.6v30.4L-104-127l-11.9-23.5"/>
	<path id="Path_223" class="st0" d="M-117.9-206.8l-16.9,24.1l18.8,40.3l-9.4-35.2l16.2-21.3"/>
	<line id="Line_11" class="st0" x1="-115.9" y1="-168" x2="-125.3" y2="-177.6"/>
	<line id="Line_12" class="st0" x1="-134.8" y1="-182.7" x2="-123.8" y2="-171.9"/>
</g>
</svg>
