<svg xmlns="http://www.w3.org/2000/svg" xmlns:xlink="http://www.w3.org/1999/xlink" width="350.211" height="322.608" viewBox="0 0 350.211 322.608">
  <defs>
    <linearGradient id="radial-gradient">
      <stop offset="0" stop-color="#72baaf"/>
      <stop offset="1" stop-color="#7ce390"/>
    </linearGradient>
  </defs>
  <g id="Group_84" data-name="Group 84" transform="translate(-309.696 -540)">
    <g id="Group_83" data-name="Group 83">
      <g id="Group_82" data-name="Group 82">
        <circle id="Ellipse_2" data-name="Ellipse 2" cx="136" cy="136" r="136" transform="matrix(0, 1, 1, 0, 330, 560)" fill="url(#radial-gradient)"/>
        <g id="Group_78" data-name="Group 78" transform="translate(232.262 314.063)">
          <path id="Path_215" data-name="Path 215" d="M232.814,418.12l22.883.875,7.361-59.573-30.245,33.629V418.12L255.7,433.133l-5.344,18.073v8.745L228,468.114h23.758l10.2-12.826,10.057-23.612-13.409-19.239,43.726-35.709L425.645,339.56,196.522,360.111,193.9,342.038,164.6,325.13l-31.92,7.142-8.745,8.6,5.1,1.6-7,3.207,13.555,7.288,26.673,6.7,8.745-3.5L194.6,392.04" fill="none" stroke="#242735" stroke-linejoin="round" stroke-width="4"/>
          <path id="Path_216" data-name="Path 216" d="M341.224,474.671l-20.405-18.511-3.207-13.555L344.9,415.853Z" transform="translate(-124.734 -57.863)" fill="none" stroke="#242735" stroke-linejoin="round" stroke-width="4"/>
          <line id="Line_3" data-name="Line 3" x1="49.236" y1="21.691" transform="translate(253.103 355.036)" fill="none" stroke="#242735" stroke-linejoin="round" stroke-width="4"/>
          <line id="Line_4" data-name="Line 4" x2="15.303" y2="5.065" transform="translate(217.511 400.472)" fill="none" stroke="#242735" stroke-linejoin="round" stroke-width="4"/>
          <path id="Path_217" data-name="Path 217" d="M418.124,543.9v15.355l25.313,17.132" transform="translate(-188.84 -139.53)" fill="none" stroke="#242735" stroke-linejoin="round" stroke-width="4"/>
          <line id="Line_5" data-name="Line 5" x2="2.676" y2="18.436" transform="translate(196.522 360.111)" fill="none" stroke="#242735" stroke-linejoin="round" stroke-width="4"/>
          <path id="Path_218" data-name="Path 218" d="M280.134,371.809l-22.883,14.138,24.726-1.443" transform="translate(-86.236 -29.772)" fill="none" stroke="#242735" stroke-linejoin="round" stroke-width="4"/>
          <path id="Path_219" data-name="Path 219" d="M180.826,345.664,143.4,348.77l-16.13,5.2" transform="translate(-3.336 -13.097)" fill="none" stroke="#242735" stroke-linejoin="round" stroke-width="4"/>
          <path id="Path_220" data-name="Path 220" d="M141.358,373.017l12.778,4.858,18.559-4.858,15.511,10.691-16.386-7.97-23.9,7.773" transform="translate(-12.319 -30.542)" fill="none" stroke="#242735" stroke-linejoin="round" stroke-width="4"/>
          <line id="Line_6" data-name="Line 6" x1="16.324" y2="1.458" transform="translate(255.698 431.675)" fill="none" stroke="#242735" stroke-linejoin="round" stroke-width="4"/>
          <line id="Line_7" data-name="Line 7" x1="2.069" y1="0.289" transform="translate(256.544 412.147)" fill="none" stroke="#242735" stroke-linejoin="round" stroke-width="4"/>
          <line id="Line_8" data-name="Line 8" y1="5.101" x2="3.53" transform="translate(229.284 414.622)" fill="none" stroke="#242735" stroke-linejoin="round" stroke-width="4"/>
          <line id="Line_9" data-name="Line 9" x2="1.409" y2="8.162" transform="translate(250.353 459.951)" fill="none" stroke="#242735" stroke-linejoin="round" stroke-width="4"/>
          <path id="Path_221" data-name="Path 221" d="M439.966,671.688l4.931-3.352-10.843-2.769-6.987,6.34,8.235-2.915,4.664,2.7,1.075,6.8" transform="translate(-194.544 -217.129)" fill="none" stroke="#242735" stroke-linejoin="round" stroke-width="4"/>
          <line id="Line_10" data-name="Line 10" x1="1.248" y1="3.425" transform="translate(239.51 448.437)" fill="none" stroke="#242735" stroke-linejoin="round" stroke-width="4"/>
          <path id="Path_222" data-name="Path 222" d="M358.548,578.244l-13.749,15.6v23.078l9.037,8.065-9.061-17.8" transform="translate(-142.058 -161.435)" fill="none" stroke="#242735" stroke-linejoin="round" stroke-width="4"/>
          <path id="Path_223" data-name="Path 223" d="M318.222,540.133l-12.816,18.274L319.69,588.99l-7.142-26.7,12.3-16.149" transform="translate(-116.949 -137.128)" fill="none" stroke="#242735" stroke-linejoin="round" stroke-width="4"/>
          <line id="Line_11" data-name="Line 11" x1="7.142" y1="7.239" transform="translate(195.599 425.165)" fill="none" stroke="#242735" stroke-linejoin="round" stroke-width="4"/>
          <line id="Line_12" data-name="Line 12" x2="8.29" y2="8.18" transform="translate(188.457 421.278)" fill="none" stroke="#242735" stroke-linejoin="round" stroke-width="4"/>
        </g>
      </g>
    </g>
  </g>
</svg>
