<?xml version="1.0" encoding="utf-8"?>
<!-- Generator: Adobe Illustrator 25.4.0, SVG Export Plug-In . SVG Version: 6.00 Build 0)  -->
<svg version="1.1" id="Layer_1" xmlns="http://www.w3.org/2000/svg" xmlns:xlink="http://www.w3.org/1999/xlink" x="0px" y="0px"
	 viewBox="0 0 896 360" style="enable-background:new 0 0 896 360;" xml:space="preserve">
<style type="text/css">
	.st0{fill:url(#Ellipse_2_00000098918790184615581560000002817914263421655213_);}
	.st1{fill:none;stroke:#242735;stroke-width:5;stroke-linejoin:round;}
	.st2{enable-background:new    ;}
	.st3{fill:#FFFFFF;}
	.st4{fill:#30C361;}
</style>
<linearGradient id="Ellipse_2_00000123406643108437377360000000835870849081598353_" gradientUnits="userSpaceOnUse" x1="-100.8369" y1="-222.4288" x2="-99.5134" y2="-222.4288" gradientTransform="matrix(0 272 272 0 60680.6406 27427.6465)">
	<stop  offset="0" style="stop-color:#72BAAF"/>
	<stop  offset="1" style="stop-color:#7CE390"/>
</linearGradient>
<circle id="Ellipse_2" style="fill:url(#Ellipse_2_00000123406643108437377360000000835870849081598353_);" cx="180" cy="180" r="180"/>
<g id="Group_78" transform="translate(232.262 314.063)">
	<path id="Path_215_00000101790618522473982090000008597956589818814376_" class="st1" d="M117.2-195.3l-217.7,19.5l-3.6-24.9
		l-40.4-23.3l-44.1,9.9l-12.1,11.9l7,2.2l-9.7,4.4l18.7,10.1l36.8,9.2l12.1-4.8l32.6,49.5"/>
	<path id="Path_215" class="st1" d="M-50.5-95.7l31.6,1.2l10.2-82.2l-41.7,46.4L-50.5-95.7L-18.9-75l-7.4,25v12.1l-30.9,11.3h32.8
		l14.1-17.7L3.6-77l-18.5-26.6l60.3-49.3l78.3-23.6"/>
	<path id="Path_216" class="st1" d="M-73-97.5l-28.2-25.5l-4.4-18.7l37.7-36.9L-73-97.5z"/>
	<line id="Line_3" class="st1" x1="45.5" y1="-152.8" x2="-22.5" y2="-182.7"/>
	<line id="Line_4" class="st1" x1="-71.6" y1="-120" x2="-50.5" y2="-113"/>
	<path id="Path_217" class="st1" d="M-55.3-114.6v21.2l34.9,23.6"/>
	<line id="Line_5" class="st1" x1="-100.6" y1="-175.7" x2="-96.9" y2="-150.3"/>
	<path id="Path_218" class="st1" d="M-104.2-200.7l-31.6,19.5l34.1-2"/>
	<path id="Path_219" class="st1" d="M-126.8-213.7l-51.7,4.3l-22.3,7.2"/>
	<path id="Path_220" class="st1" d="M-193.7-200.1l17.6,6.7l25.6-6.7l21.4,14.8l-22.6-11l-33,10.7"/>
	<line id="Line_6" class="st1" x1="3.6" y1="-77" x2="-18.9" y2="-74.9"/>
	<line id="Line_7" class="st1" x1="-14.9" y1="-103.5" x2="-17.7" y2="-103.9"/>
	<line id="Line_8" class="st1" x1="-55.3" y1="-93.4" x2="-50.5" y2="-100.5"/>
	<line id="Line_9" class="st1" x1="-26.3" y1="-37.9" x2="-24.3" y2="-26.7"/>
	<path id="Path_221" class="st1" d="M-33.1-45.4l6.8-4.6l-15-3.8l-9.6,8.8l11.4-4L-33.1-45.4l1.5,9.4"/>
	<line id="Line_10" class="st1" x1="-39.5" y1="-49.1" x2="-41.2" y2="-53.8"/>
	<path id="Path_222" class="st1" d="M-73-97.5L-92-76v31.9L-79.5-33L-92-57.5"/>
	<path id="Path_223" class="st1" d="M-94-116.5l-17.7,25.2L-92-49.1l-9.9-36.9l17-22.3"/>
	<line id="Line_11" class="st1" x1="-92" y1="-75.9" x2="-101.8" y2="-85.9"/>
	<line id="Line_12" class="st1" x1="-111.7" y1="-91.3" x2="-100.3" y2="-80"/>
</g>
<g class="st2">
	<path class="st3" d="M407.4,157.6V60.8h41.5c11,0,19.3,2.4,25,7.2c5.7,4.8,8.6,11.7,8.6,20.7c0,8.5-2.9,15.3-8.8,20.3
		c-5.9,5-14.1,7.5-24.6,7.5l10.9-2.2c3.4,0,6.3,1,9,3c2.6,2,4.7,5.1,6.3,9.2l12,31h-18.5l-12.2-32.2c-1.3-3.2-3.1-5.3-5.4-6.4
		c-2.3-1.1-5.2-1.6-8.6-1.6h-17.7v40.3H407.4z M424.6,103.8h21.9c6.7,0,11.6-1.2,14.7-3.7c3.1-2.4,4.6-6.1,4.6-11
		c0-5-1.5-8.7-4.6-11c-3.1-2.4-8-3.5-14.7-3.5h-21.9V103.8z"/>
	<path class="st3" d="M528.3,158.6c-6,0-11.3-1.4-15.9-4.3s-8.2-6.9-10.7-12.2c-2.5-5.3-3.7-11.5-3.7-18.7c0-7.3,1.3-13.6,3.8-19
		c2.5-5.4,6.1-9.6,10.7-12.6c4.6-3,9.9-4.6,15.8-4.6c5.8,0,10.9,1.4,15.2,4.3c4.3,2.9,7.2,6.8,8.8,11.9l-1.6,1V89h16.7v68.7h-16.7
		v-15.5l1.6,0.5c-1.5,5.1-4.5,9-8.8,11.8C539.2,157.2,534.1,158.6,528.3,158.6z M533,145.5c5.6,0,10-1.9,13.1-5.8
		c3.1-3.9,4.6-9.4,4.6-16.6c0-7.3-1.5-12.9-4.6-16.8c-3.1-3.9-7.4-5.8-13.1-5.8c-5.7,0-10.2,2-13.3,6c-3.2,4-4.8,9.6-4.8,16.9
		c0,7.1,1.6,12.5,4.8,16.4C522.8,143.6,527.3,145.5,533,145.5z"/>
	<path class="st3" d="M585.7,187v-78.6c0-3.2-0.1-6.4-0.2-9.7c-0.1-3.3-0.4-6.5-0.9-9.7h16l1.5,13.6l-1,0.8c1.4-5.1,4.3-9,8.6-11.9
		c4.3-2.9,9.3-4.3,15.1-4.3c6,0,11.3,1.5,15.8,4.6c4.6,3,8.2,7.3,10.8,12.6c2.6,5.4,3.9,11.7,3.9,19c0,7.2-1.3,13.4-3.9,18.7
		c-2.6,5.3-6.2,9.4-10.7,12.2c-4.5,2.9-9.8,4.3-15.9,4.3c-5.8,0-10.8-1.4-15.1-4.1c-4.3-2.8-7.1-6.7-8.6-11.8l1.5-2.2V187H585.7z
		 M620.6,145.5c5.6,0,10-1.9,13.1-5.8c3.1-3.9,4.6-9.3,4.6-16.4c0-7.3-1.5-12.9-4.6-16.9c-3.1-4-7.4-6-13.1-6
		c-5.8,0-10.2,1.9-13.3,5.8c-3,3.9-4.6,9.5-4.6,16.8c0,7.2,1.5,12.7,4.6,16.6C610.3,143.6,614.7,145.5,620.6,145.5z"/>
	<path class="st3" d="M661.2,101.7V89h48.4v12.8H661.2z M709.6,143.5V157c-1.8,0.6-3.6,1.1-5.4,1.3c-1.8,0.2-3.7,0.3-5.6,0.3
		c-7.7,0-13.7-2.2-17.9-6.5c-4.2-4.4-6.3-10.6-6.3-18.8V72.2l17-5.7v66c0,3.1,0.5,5.5,1.5,7.3c1,1.8,2.3,3,4,3.7
		c1.7,0.7,3.6,1.1,5.6,1.1c1.2,0,2.3-0.1,3.4-0.3C707,144.1,708.3,143.9,709.6,143.5z"/>
</g>
<g class="st2">
	<path class="st4" d="M407.4,281.6v-96.8h63.4v14h-46.1v26.7h43.4v14h-43.4v42.2H407.4z"/>
	<path class="st4" d="M483.1,181.8H502v16.7h-18.9V181.8z M483.9,281.6V213h17v68.7H483.9z"/>
	<path class="st4" d="M519.2,281.6v-49.2c0-3.3-0.1-6.5-0.2-9.8c-0.1-3.3-0.4-6.5-0.9-9.7h16l1.5,13.6l-1.5,0.4
		c2.2-5.2,5.4-9.1,9.7-11.8c4.3-2.7,9.3-4,14.9-4c16.3,0,24.5,9.4,24.5,28.3v42.2h-17v-41.5c0-5.3-1-9.3-3.1-11.8
		c-2.1-2.5-5.3-3.7-9.7-3.7c-5.3,0-9.5,1.7-12.6,5c-3.1,3.3-4.7,7.7-4.7,13.1v38.9H519.2z"/>
	<path class="st4" d="M627.9,282.6c-6,0-11.3-1.4-15.9-4.3s-8.2-6.9-10.7-12.2c-2.5-5.3-3.7-11.5-3.7-18.7c0-7.3,1.3-13.6,3.8-19
		c2.5-5.4,6.1-9.6,10.7-12.6c4.6-3,9.9-4.6,15.8-4.6c5.8,0,10.9,1.4,15.2,4.3c4.3,2.9,7.2,6.8,8.8,11.9l-1.6,1V213h16.7v68.7h-16.7
		v-15.5l1.6,0.5c-1.5,5.1-4.5,9-8.8,11.8C638.8,281.2,633.7,282.6,627.9,282.6z M632.5,269.5c5.6,0,10-1.9,13.1-5.8
		c3.1-3.9,4.6-9.4,4.6-16.6c0-7.3-1.5-12.9-4.6-16.8c-3.1-3.9-7.4-5.8-13.1-5.8c-5.7,0-10.2,2-13.3,6c-3.2,4-4.8,9.6-4.8,16.9
		c0,7.1,1.6,12.5,4.8,16.4C622.4,267.6,626.8,269.5,632.5,269.5z"/>
	<path class="st4" d="M685.3,281.6v-49.2c0-3.3-0.1-6.5-0.2-9.8c-0.1-3.3-0.4-6.5-0.9-9.7h16l1.5,13.6l-1.5,0.4
		c2.2-5.2,5.4-9.1,9.7-11.8c4.3-2.7,9.3-4,14.9-4c16.3,0,24.5,9.4,24.5,28.3v42.2h-17v-41.5c0-5.3-1-9.3-3.1-11.8
		c-2.1-2.5-5.3-3.7-9.7-3.7c-5.3,0-9.5,1.7-12.6,5c-3.1,3.3-4.7,7.7-4.7,13.1v38.9H685.3z"/>
	<path class="st4" d="M798.3,282.6c-7.2,0-13.4-1.4-18.6-4.3c-5.2-2.9-9.2-6.9-12-12.2c-2.8-5.3-4.1-11.5-4.1-18.7
		c0-7.3,1.4-13.6,4.4-19c2.9-5.4,7-9.7,12.4-12.6c5.3-3,11.6-4.5,18.8-4.5c4.8,0,9.5,0.8,14.1,2.3c4.6,1.5,8.3,3.7,11.2,6.4l-4.9,12
		c-2.9-2.4-6-4.1-9.2-5.4c-3.3-1.2-6.5-1.8-9.8-1.8c-6,0-10.7,1.9-14.2,5.7c-3.5,3.8-5.2,9.4-5.2,16.7c0,7.3,1.7,12.8,5.2,16.6
		c3.4,3.8,8.2,5.7,14.4,5.7c3.2,0,6.4-0.6,9.7-1.8c3.3-1.2,6.3-3.1,9.2-5.5l4.9,12c-3,2.7-6.8,4.8-11.5,6.3
		C808.2,281.8,803.4,282.6,798.3,282.6z"/>
	<path class="st4" d="M894.7,274c-3.3,2.7-7.3,4.8-12,6.3s-9.6,2.2-14.5,2.2c-7.4,0-13.9-1.4-19.2-4.2c-5.4-2.8-9.5-6.9-12.4-12.2
		c-2.9-5.3-4.4-11.7-4.4-19c0-7.1,1.4-13.3,4.2-18.7c2.8-5.4,6.7-9.6,11.7-12.6c5-3,10.7-4.6,17.3-4.6c6.3,0,11.8,1.4,16.3,4.1
		c4.5,2.8,8,6.7,10.5,11.9c2.5,5.2,3.7,11.3,3.7,18.4v2.6h-48.8l0.1-9.1h38.6l-4.6,4.6c0.1-6.6-1.2-11.6-3.9-15.1
		c-2.7-3.4-6.6-5.2-11.6-5.2c-5.4,0-9.7,1.9-12.6,5.8c-3,3.9-4.5,9.4-4.5,16.5c0,8.2,1.7,14.2,5,18c3.4,3.9,8.4,5.8,15.2,5.8
		c3.7,0,7.4-0.6,10.9-1.8c3.6-1.2,6.9-3,10-5.4L894.7,274z"/>
</g>
<g>
	<path class="st3" d="M780.1,103.8l-7.4,7.2l0,0l-2.7,2.7l-5.7-5.6l-7.7,7.6l0,0l-2.7,2.7l-10.3-10.1l-8,7.9l0,0l0,0l-12.7-12.5
		c-3.8,7.4-5.9,15.5-5.9,22.7c0,19.1,15.5,34.1,34.5,34.1c19.1,0,34.5-15.1,34.5-34.1C786,119.3,783.8,111.2,780.1,103.8z
		 M755,150.3c-0.5,1.4-2.5,2.1-4.4,1.4s-3.1-2.4-2.6-3.8c0.5-1.4,2.5-2.1,4.4-1.4S755.5,148.9,755,150.3z M764.4,121.2
		c1.1-2.4,3.6-3.5,5.7-2.6c2,0.9,2.8,3.6,1.8,6s-3.6,3.5-5.7,2.6C764.1,126.2,763.3,123.5,764.4,121.2z M772.3,144.8
		c-2.1,4.5-6.5,6.9-9.9,5.3c-3.4-1.6-4.5-6.5-2.4-10.9s6.5-6.9,9.9-5.3S774.4,140.4,772.3,144.8z"/>
	<path class="st3" d="M735.6,110.9l5.3-5.2l0,0l2.7-2.7l10.3,10.1l10.4-10.2l0,0l0.1-0.1l5.7,5.6l8.2-8c-6.3-10.6-16-18.9-26.7-18.9
		s-20.3,8.2-26.7,18.8L735.6,110.9z M733.5,97.3c2.4-3.1,6-4.4,8.1-2.8s2,5.4-0.4,8.6c-2.4,3.1-6,4.4-8.1,2.8
		S731.1,100.4,733.5,97.3z"/>
</g>
<g class="st2">
	<path class="st3" d="M795.1,157.6v-49.2c0-3.2-0.1-6.4-0.2-9.7c-0.1-3.3-0.4-6.5-0.9-9.7h16l1.9,17.7l-1.9-1
		c1.2-6.1,3.9-10.7,8-13.7c4.2-3.1,8.9-4.6,14.1-4.6c1.4,0,2.6,0.1,3.8,0.3c1.2,0.2,2.2,0.5,3.1,0.8l-0.3,15.5
		c-2.8-1.2-5.8-1.8-9-1.8c-4.1,0-7.4,0.8-10,2.4s-4.5,3.8-5.8,6.6c-1.3,2.8-2,5.9-2,9.3v37.1H795.1z"/>
</g>
</svg>
