<svg xmlns="http://www.w3.org/2000/svg" xmlns:xlink="http://www.w3.org/1999/xlink" width="298.459" height="327.931" viewBox="0 0 298.459 327.931">
  <defs>
    <clipPath id="clip-path">
      <path id="Path_157" data-name="Path 157" d="M169.915,226.228A149.229,149.229,0,1,0,319.145,77c-6.562,0-39.319-30.281-45.652-29.456C252.778,50.222,248.7,74.6,231.551,84.878c-22.1,13.238-29.5,45.323-42.249,67.755a148.4,148.4,0,0,0-19.387,73.6Z" fill="none"/>
    </clipPath>
    <clipPath id="clip-path-2">
      <path id="Path_173" data-name="Path 173" d="M169.915,226.228a148.4,148.4,0,1,0,9.333-52.056A149.235,149.235,0,0,0,169.915,226.228Z" fill="none"/>
    </clipPath>
  </defs>
  <g id="Group_73" data-name="Group 73" transform="translate(-169.915 -47.526)">
    <path id="Path_135" data-name="Path 135" d="M169.915,226.228a148.4,148.4,0,1,0,9.333-52.056A149.235,149.235,0,0,0,169.915,226.228Z" fill="#00ff95"/>
    <path id="Path_136" data-name="Path 136" d="M216.065,203.878s25,16,56,18c0,0-8,5-25,5,0,0,27,31,37,35,42-9,108-4,108-4,5-8,28-22,28-22V228.4s-51,8.48-83,4.48v-4s-15,3-23,9v-10l-12,5v-10l-15,7s0-18,2-20c0,0-5,4-13-2s-24-21-24-21h-10s-15-30-15-32h-21c2,0,28-7,30-10,0,0,7,29,13,33s43,3,43,3-7,5-30,5c0,0,21,18,29,18,6.75,0,8.52-2.14,8.9-2.8-.78,1.59-5.981,12.26-6.9,17.8l15-10-1,15,16-11-1,14s18-8,21-8l-1,5s34,3.68,78-4.16v-16.84l-6-5c-1,2-9,3-9,3l4-8s-10-8-25-36-37-51-37-51l-9,1,12,22s-36-36-72-44c0,0-25,11-48,39h10s-32,17-41,30C199.065,153.878,201.065,183.878,216.065,203.878Zm27-75s28-22,33-24a9.8,9.8,0,0,0-4.98-4.99c.91.21,30.07,7.07,35.98,11.99l19,35a32.167,32.167,0,0,0,4-7s4,7,3,19c0,0,23.969,25.96,32.979,30.99-.7-.21-23.279-7.24-41.979-22.99h-31s-29.961-22.97-33.99-27.99a40.86,40.86,0,0,0,8.99,2.99v-13S251.065,127.878,243.065,128.878Z" fill="#029524"/>
    <path id="Path_137" data-name="Path 137" d="M344.565,100.378l80,104v18s-65,7.7-80.5,4.85-94.521-103.384-94.521-103.384l-27.979,4.534,36-43,23-11,37,26,12,4Z" fill="#00ff8f"/>
    <path id="Path_138" data-name="Path 138" d="M223.565,164.378l-14-1s3.528,38.351,19.264,47.176,34.236,11.324,34.236,11.324,4,23,18,32l48,1s13-12,15-19l-33-1v-8l-9,6-7-8-10,3v-13s-31-12-36-21h-14S222.065,171.878,223.565,164.378Z" fill="#00e94c"/>
    <path id="Path_139" data-name="Path 139" d="M210.472,154.235s27.167-30.357,28.88-30.357-9.287,1-9.287,1,32-30,38-31c0,0,33,7,43,13,0,0,11,13,17,22,0,0,3-4,3-6,0,0,9,9,9,26l26,36,21,2,11,13s-18,4-25,0-9-5-9-5l24.5,28.5c6,11-35.04,1.908-33.5,5.5l-20-3-18,5v-9l-14,6v-10l-14,5,3-15-37-23-20-15-4-18Z" fill="#00e84d"/>
    <path id="Path_140" data-name="Path 140" d="M241.065,136.878s-1,28,20,33a13.834,13.834,0,0,1-7,2s27.026,8.19,32.013,9.1l-39.013.9-16-31-11.879.687Z" fill="#05fe93"/>
    <path id="Path_141" data-name="Path 141" d="M338.567,107.8l6.5.079,17,25v7l17,29s-20.49-21.416-30.245-41.208S338.567,107.8,338.567,107.8Z" fill="#05ea47"/>
    <path id="Path_142" data-name="Path 142" d="M380.065,230.878l10,19s16,0,19-3,16-11,16-11l-1-13Z" fill="#00f04f"/>
    <path id="Path_143" data-name="Path 143" d="M221.065,235.878s10.769,57.133,20.769,62.133,68.311,36.217,68.311,36.217-40-6-55-12c0,0,12,22,72,28h29s-37.08-49.35-40.08-82.35c0,0-25-2-34,2Z" fill="#009523"/>
    <path id="Path_144" data-name="Path 144" d="M288.164,277.728c3.07,3.06,27.071,47.06,34.981,48.5,0,0,6,23,33,25s-19-31-19-31l-13-3S292.724,280.068,288.164,277.728Z" fill="#01ee47"/>
    <path id="Path_145" data-name="Path 145" d="M268.065,128.878v13a40.86,40.86,0,0,1-8.99-2.99c4.029,5.02,33.99,27.99,33.99,27.99h31c18.7,15.75,41.28,22.78,41.979,22.99-9.01-5.03-32.979-30.99-32.979-30.99,1-12-3-19-3-19a32.167,32.167,0,0,1-4,7l-19-35c-5.91-4.92-35.07-11.78-35.98-11.99a9.8,9.8,0,0,1,4.98,4.99c-5,2-33,24-33,24C251.065,127.878,268.065,128.878,268.065,128.878Z"/>
    <path id="Path_146" data-name="Path 146" d="M206.065,154.878h21c0,2,15,32,15,32h10s16,15,24,21,13,2,13,2c-2,2-2,20-2,20l15-7v10l12-5v10c8-6,23-9,23-9v4c32,4,83-4.48,83-4.48v-8.68c-44,7.84-78,4.16-78,4.16l1-5c-3,0-21,8-21,8l1-14-16,11,1-15-15,10c.919-5.54,6.12-16.21,6.9-17.8-.38.66-2.15,2.8-8.9,2.8-8,0-29-18-29-18,23,0,30-5,30-5s-37,1-43-3-13-33-13-33C234.065,147.878,208.065,154.878,206.065,154.878Z"/>
    <path id="Path_147" data-name="Path 147" d="M278.065,125.878v21l16,14,23-2s-17-19-20-33Z" fill="#fff"/>
    <path id="Path_148" data-name="Path 148" d="M316.585,173.378a1.192,1.192,0,0,1,1.184,1.011c.294,1.977.37,6.227-4.2,6.989-7.2,1.2-10.077.961-8.643-2.441a10.151,10.151,0,0,1,8.623-5.559Z" fill="#01ff97"/>
    <path id="Path_149" data-name="Path 149" d="M355.928,200.515a7.121,7.121,0,0,1-7.316,3.493,1.285,1.285,0,0,1-.617-2.252,8.2,8.2,0,0,1,2.57-1.378,20.986,20.986,0,0,1,4.733-.934A.689.689,0,0,1,355.928,200.515Z" fill="#01ff97"/>
    <path id="Path_150" data-name="Path 150" d="M336.5,185.378a.954.954,0,0,1,.949,1.106c-.257,1.473-1.1,3.894-3.887,3.894-4,0-5,0-5-1s1-4,3-4Z" fill="#01ff97"/>
    <path id="Path_151" data-name="Path 151" d="M331.565,197.378s-10,0-11,1,0,6,5,5,7-3,7-4A3.491,3.491,0,0,0,331.565,197.378Z" fill="#01ff97"/>
    <path id="Path_152" data-name="Path 152" d="M314.015,183.443a.889.889,0,0,1,.836,1.337c-.835,1.4-2.353,3.243-4.286,2.6-3-1-3-2-1-3A13.338,13.338,0,0,1,314.015,183.443Z" fill="#01ff97"/>
    <path id="Path_153" data-name="Path 153" d="M389.255,189.467l8.81,10.411s-10.036,2.061-12.928,1.717-10.679-10.9-10.679-10.9,9.107,3.744,10.468,2.766A54.049,54.049,0,0,0,389.255,189.467Z"/>
    <path id="Path_154" data-name="Path 154" d="M402.19,212.884a1.028,1.028,0,0,0,.047-1.546,5.512,5.512,0,0,0-3.694-1.72,9.446,9.446,0,0,1-2.027-.119.872.872,0,0,0-.949,1.2c.707,1.715,1.89,4.118,2.976,4.118C399.653,214.812,401.235,213.669,402.19,212.884Z"/>
    <path id="Path_155" data-name="Path 155" d="M408.648,212.023a1.029,1.029,0,0,1-.306-1.517,5.51,5.51,0,0,1,3.351-2.317,9.433,9.433,0,0,0,1.978-.459.873.873,0,0,1,1.137,1.019c-.408,1.809-1.17,4.377-2.24,4.56C411.474,213.495,409.721,212.635,408.648,212.023Z"/>
    <g id="Group_69" data-name="Group 69">
      <g id="Group_68" data-name="Group 68" clip-path="url(#clip-path)">
        <path id="Path_156" data-name="Path 156" d="M166,203.51c0,44.981,19.347,117.112,58.723,151.181,23.626,20.442,74.686,31.064,101.675,31.064,22.39,0,56.851-20.262,75.261-30.212l-14.518-2.315s-55.08-50.35-56.08-87.35c0,0,34,0,59,4,0,0,32-30,40-29v-42s-26-24-29-38-2-24-14-25c0,0-28-39-36-44,0,0-16,3-22,7,0,0-19.641-14.73-36.9-24.23-7.37-4.06-14.31-7.17-19.1-7.77a226.077,226.077,0,0,0-30.9,25.15c-8.759,8.53-17.649,18.74-24.1,29.85,0,0-13.47,10.58-22.391,17.73-3.94,3.16-7,5.66-7.609,6.27,0,0-.882,9.542-1.882,12.542C178.451,171.691,166,187.52,166,203.51Zm55.061,32.368,61,34c9-4,34-2,34-2,3,33,40.08,82.35,40.08,82.35h-29c-60-6-72-28-72-28,15,6,55,12,55,12s-56.209-33.254-66.209-38.254S221.065,235.878,221.065,235.878Zm-22-82c9-13,41-30,41-30h-10c23-28,48-39,48-39,36,8,72,44,72,44l-12-22,9-1s22,23,37,51,25,36,25,36l-4,8s8-1,9-3l6,5v33s-23,14-28,22c0,0-66-5-108,4-10-4-37-35-37-35,17,0,25-5,25-5-31-2-56-18-56-18C201.065,183.878,199.065,153.878,199.065,153.878Z"/>
      </g>
    </g>
    <g id="Group_72" data-name="Group 72">
      <g id="Group_71" data-name="Group 71" clip-path="url(#clip-path-2)">
        <g id="Group_70" data-name="Group 70">
          <path id="Path_158" data-name="Path 158" d="M341.734,285.927s17.974-10.426,21.467-5.214c0,0-2.506,3.087.789,8.269,0,0-17.964,6.353-15.756,18.7,0,0,16.121-14.374,29.581-4.3,0,0-8.906-13.615-11.463-17.926s5.593-8.726,5.593-8.726S351.117,262.184,341.734,285.927Z"/>
          <path id="Path_159" data-name="Path 159" d="M404.41,347.471a76.512,76.512,0,0,0,10.76-2.95c3.99-3.92,8.3-7.32,12.51-9.07l7.59-2.42-2.13-4.81s32.68-62.7-21.99-83.77c.65.6,26.17,24.64,13.9,56.63a14.16,14.16,0,0,1-7.45,7.83,30.48,30.48,0,0,1-7.49,2.46c-3.12-.74-6.28-3.4-8.76-9.69a28.22,28.22,0,0,0-2.25-4.54l-.02-.02c-.65-1.52-1.19-2.85-1.57-3.8a3.262,3.262,0,0,0-2.15-1.93l-11.93-3.4-1.75-.5s-4.37-7.53-2.53-9.87l-7.2-.88s-8.16,4.42-5.6,8.72,11.47,17.93,11.47,17.93-4.97,5.26-4.36,7.28,6.78,13.76,4.54,17.19c-1.18,1.79-9.64,8.82-17.46,15.13a76.379,76.379,0,0,0,7.86,2.8,75.5,75.5,0,0,0,26.84,2.89A76.338,76.338,0,0,0,404.41,347.471Z"/>
          <path id="Path_160" data-name="Path 160" d="M434.218,271.69s4.836,24.18-10.287,42.373l4.572,6.2S446.993,291.873,434.218,271.69Z" fill="#00ff8f"/>
          <path id="Path_161" data-name="Path 161" d="M375.091,298.115s-13.383-4.461-22.792,3.9c0,0,8.28-11.688,20.113-11.127Z" fill="#00ff8f"/>
          <path id="Path_162" data-name="Path 162" d="M368.4,345.791a75.5,75.5,0,0,0,26.84,2.89,76.338,76.338,0,0,0,9.17-1.21c5.33-6.2,12.87-13.5,22.16-18.58l-9.21-12.49s-9.58,4.54-12.44,3.06-9-20.35-13.06-21.78c-1.85-.65-4.46-1.6-6.74-2.44-2.72-.99-4.98-1.83-4.98-1.83l3.73,13.01-2.1,2.79s5.79,10.37,6.88,16.58l.04.27c.29,1.83.13,3.26-.74,3.9-1.29.95-4.74,3.73-8.74,6.98C375.67,339.831,371.69,343.081,368.4,345.791Z" fill="#05ea47"/>
          <path id="Path_163" data-name="Path 163" d="M361.44,351.521c.05.04.1.07.15.11a74.826,74.826,0,0,0,17.48,3.64c1.41-2.67,3.39-5.76,5.34-6.58a2.374,2.374,0,0,1,1.12-.21c3.93.28,8.42-6.22,8.42-6.22-4.8.75-12.84-4.11-14.74-5.32-3.54,2.89-7.52,6.14-10.81,8.85C364.42,349.061,361.44,351.521,361.44,351.521Z" fill="#009523"/>
          <path id="Path_164" data-name="Path 164" d="M412.706,327.394a.694.694,0,0,1-.064.906c-.825.823-2.794,2.331-4.737.448-3.055-2.962-3.941-4.4-1.848-4.9a5.922,5.922,0,0,1,5.6,2.122Z" fill="#01ff97"/>
          <path id="Path_165" data-name="Path 165" d="M401.006,345.435a4.152,4.152,0,0,1-4.173-2.223.75.75,0,0,1,.843-1.071,4.786,4.786,0,0,1,1.536.729,12.246,12.246,0,0,1,2.079,1.9A.4.4,0,0,1,401.006,345.435Z" fill="#01ff97"/>
          <path id="Path_166" data-name="Path 166" d="M403.775,333.393a.4.4,0,0,1-.138.6,1.726,1.726,0,0,1-2.307-.345c-1.007-1.365-1.259-1.706-.918-1.957s1.616-.666,2.12.016Z" fill="#01ff97"/>
          <path id="Path_167" data-name="Path 167" d="M394.949,335.415s-3.009-4.078-3.718-4.185-2.447,1.806-.534,3.544,3.33,1.952,3.738,1.651A1.766,1.766,0,0,0,394.949,335.415Z" fill="#01ff97"/>
          <path id="Path_168" data-name="Path 168" d="M398.331,319.849a.518.518,0,0,1-.337.855c-.945.091-2.338.019-2.7-1.112-.57-1.754-.1-2.1,1.061-1.509A7.769,7.769,0,0,1,398.331,319.849Z" fill="#01ff97"/>
          <path id="Path_169" data-name="Path 169" d="M394.818,309.19a.3.3,0,0,1-.193.489c-.54.052-1.336.011-1.546-.636-.326-1-.057-1.2.607-.862A4.466,4.466,0,0,1,394.818,309.19Z" fill="#01ff97"/>
          <path id="Path_170" data-name="Path 170" d="M404.916,319.458c.81,2.647,8.96.739,8.96.739l12.7,8.694-9.218-12.49S407.78,320.942,404.916,319.458Z" fill="#009523"/>
          <path id="Path_171" data-name="Path 171" d="M356.1,346.546a1.868,1.868,0,0,0,.443,3.183q2.484,1.041,5.05,1.9a74.826,74.826,0,0,0,17.48,3.64,76.334,76.334,0,0,0,12.01.08,77.385,77.385,0,0,0,15.773-2.82A4.823,4.823,0,0,0,409.169,351c1.867-2.2,3.887-4.419,6-6.482a76.3,76.3,0,0,1-30.76,4.17,75.135,75.135,0,0,1-16.01-2.9,76.379,76.379,0,0,1-7.86-2.8C359.018,344.218,357.515,345.417,356.1,346.546Z"/>
          <path id="Path_172" data-name="Path 172" d="M383.87,306.421l-2.1,2.79s5.79,10.37,6.88,16.58l-1.96-14.55,1.42-3.56-2.83-12.37-.16-.07c-2.72-.99-4.98-1.83-4.98-1.83Z" fill="#029524"/>
        </g>
      </g>
    </g>
  </g>
</svg>
