<svg xmlns="http://www.w3.org/2000/svg" width="327.96" height="155.716" viewBox="0 0 327.96 155.716">
  <g id="Group_81" data-name="Group 81" transform="translate(-444.491 -131)">
    <g id="Group_80" data-name="Group 80" transform="translate(-188.114 -204.316)">
      <path id="Path_230" data-name="Path 230" d="M953.059,460.151h-.008l-2.282-4.046-4.952-8.775a23.027,23.027,0,0,0-16.5-39.088l-33.938-.107-1.186,6c-7.506-6.344-23.425-6.2-23.425-6.2l-1.961-3.79L790.62,410.6l-7.6-2.183-37.555-.066-1.359,5.784-3.337-5.718-34.144-.9-7.4,10.868c-6.55-12.705-24.792-13.265-24.792-13.265L644,404.14l-4.985,17.789,1.689,2.208-8.1,36.7,5.042,8.371H667.1l.733-1.425,49.23,23.251L706.018,469.47l7.473-.527,2.941-5.372,2.521,5.586,49.123.618,3.263-14.724c17.879.733,24.611-7.679,24.611-7.679l-2.735,14.312,3.815,7.572,30.585.107,2.941-17.253,3.642.082c1,4.35,3.84,8.981,10.036,13.167,19.14,12.936,44.493,1.483,44.493,1.483l2.414,4.729,69.425,1.887ZM667.944,423.346l1.326.157a5.589,5.589,0,0,1,4.952,4.457l-1.409-.214c-.461-2.249-3.469-2.851-3.469-2.851l-.157,2.258-1.673-.206Z"/>
      <path id="Path_231" data-name="Path 231" d="M697.661,432.88l-48.48-7.267,2.67-11.008s18.44.4,27.149.7c.222,0,.453,0,.676.017l.478.025C689.776,415.907,697.431,423.512,697.661,432.88Z" transform="translate(-2.918 -1.842)" fill="#187b2a"/>
      <path id="Path_232" data-name="Path 232" d="M949.358,433.462a15.486,15.486,0,0,0-15.482-15.49q-.371,0-.741.025a.62.62,0,0,0-.124,0l-29.382.206-3.37,14.089c-7.358-19.494-36.492-14.444-36.492-14.444l5.4-4.771-76.47,6.9c-2.052-1.425-7-1.631-7-1.631l-31.45.107-7.885,34.861L745.2,439.584l-2.365.321L741.5,418.343l-28.187-.84L703.5,433.281v.008l20.541,3.073V446.9h-4.927l4.927-10.538-19.8-1.887.519.832-11.5,19.774-3.584-7.119a17.815,17.815,0,0,0,8.421-14.073l-20.359-1.936a4.022,4.022,0,0,1-.016.832,5.724,5.724,0,0,1-6.2,4.655l-1.327-.157.025-.247.684-5.735-20.211-1.92-6.732,34.605h20.3l3.049-15.564L675,464.731l30.5,13.776-7.465-15.045,13.776.321,2.628-6.311h10.629V464.1h40.282l2.521-14.518s28.459,4.21,32.636-15.144h9.863l-6.526,29.555,20.195-.313,6.311-29.6h10.728s-4.622,7.193-3.362,13.29h2.892c2.439,10.934,14.757,19.247,29.579,19.247,10.95,0,20.532-4.532,25.765-11.3l-41.4-6.262,39.442,3.79,3.683-3.889-1.689,4.993.9.074,20.244,1.763,1.788-7.045,3.477,7.572,2.521.272c.008,0,.008,0,.016.008l10.876,1.186h.016l10.81,1.178-6.962-11.14A15.459,15.459,0,0,0,949.358,433.462Zm-170.316.544c-.288,2.381-3.312,4.136-6.18,3.79l-1.351-.157.025-.206,1-8.4,1.351.165C776.76,429.532,779.322,431.633,779.042,434.006Zm98.971,7.144a9.278,9.278,0,0,1-8.808,8.33,7.99,7.99,0,0,1-8.635-7.893,9.2,9.2,0,0,1,9.269-8.94A7.945,7.945,0,0,1,878.014,441.15Zm49.955-7.2c-.28,2.373-3.09,4.153-5.751,3.84l-1.244-.148.025-.206,1-8.4,1.252.148C925.9,429.5,928.249,431.567,927.969,433.948Z" transform="translate(-2 -1.574)" fill="#187b2a"/>
      <path id="Path_233" data-name="Path 233" d="M697.549,430.17,649.069,422.9l2.67-11.008s18.44.4,27.149.7c.222,0,.453,0,.676.016l.478.025C689.664,413.2,697.319,420.8,697.549,430.17Z" transform="translate(-2.899 -1.365)" fill="#00e94b"/>
      <path id="Path_234" data-name="Path 234" d="M1010.746,475.648H987.495l-3.576-8.206-.61-.717,23.977,3.386Z" transform="translate(-61.746 -11.019)" fill="#00e94b"/>
      <path id="Path_235" data-name="Path 235" d="M972.059,465.2l-1.269,7.992H949.969l1.994-10.835Z" transform="translate(-55.876 -10.25)" fill="#00e94b"/>
      <path id="Path_236" data-name="Path 236" d="M947.571,430.909a15.486,15.486,0,0,0-15.482-15.49q-.371,0-.742.025a.619.619,0,0,0-.124,0l-29.382.206-3.37,14.089c-7.358-19.494-36.492-14.444-36.492-14.444l5.4-4.771-76.47,6.9c-2.052-1.425-7-1.631-7-1.631l-31.45.107-7.885,34.861-1.162-13.727-2.365.321-1.335-21.562-28.187-.84-9.813,15.778v.008l20.541,3.073v10.538H717.33l4.927-10.538-19.8-1.887.519.832-11.5,19.774-3.584-7.119a17.815,17.815,0,0,0,8.421-14.073L675.952,429.4a4.031,4.031,0,0,1-.016.832,5.724,5.724,0,0,1-6.2,4.655l-1.327-.156.025-.247.684-5.735-20.211-1.92-6.732,34.605h20.3l3.049-15.564,7.679,16.306,30.5,13.776-7.465-15.045,13.776.321,2.628-6.311h10.629v6.625h40.282l2.521-14.518s28.459,4.21,32.636-15.144h9.863l-6.526,29.555,20.195-.313,6.311-29.6h10.728s-4.622,7.193-3.362,13.29h2.892c2.439,10.934,14.757,19.247,29.579,19.247,10.95,0,20.532-4.532,25.764-11.3l-41.4-6.262,39.442,3.79,3.683-3.889-1.689,4.993.9.074,20.244,1.763,1.788-7.045,3.477,7.572,2.521.272c.008,0,.008,0,.016.008l10.876,1.186h.016l10.81,1.178-6.962-11.14A15.458,15.458,0,0,0,947.571,430.909Zm-170.316.544c-.288,2.381-3.312,4.136-6.18,3.79l-1.351-.157.025-.206,1-8.4,1.351.165C774.973,426.979,777.535,429.08,777.255,431.453Zm98.971,7.144a9.278,9.278,0,0,1-8.808,8.33,7.99,7.99,0,0,1-8.635-7.893,9.2,9.2,0,0,1,9.269-8.94A7.945,7.945,0,0,1,876.227,438.6Zm49.955-7.2c-.28,2.373-3.09,4.153-5.751,3.84l-1.244-.148.025-.206,1-8.4,1.252.148C924.114,426.946,926.462,429.014,926.182,431.4Z" transform="translate(-1.686 -1.124)" fill="#00e94b"/>
      <path id="Path_237" data-name="Path 237" d="M681.682,432.064l-1.409-.214C679.812,429.6,676.8,429,676.8,429l-.16,2.309-1.669-.257.428-3.6,1.327.157A5.589,5.589,0,0,1,681.682,432.064Z" transform="translate(-7.46 -4.104)" fill="#187b2a"/>
      <path id="Path_238" data-name="Path 238" d="M681.705,432.708l-6.83-.651.082-.667v-.008l1.673.206.157-2.258s3.007.6,3.469,2.851l1.409.214A1.912,1.912,0,0,1,681.705,432.708Z" transform="translate(-7.442 -4.435)"/>
    </g>
    <g id="staking" transform="translate(454.171 131.02)">
      <path id="Path_224" data-name="Path 224" d="M164.472,87.5l-15.942.126.009-.027Z" transform="translate(-15.201 -8.957)"/>
      <path id="Path_225" data-name="Path 225" d="M328.738,52.6l-.386,3.878L322.4,90.742H304.187l-.574-1.661a31.849,31.849,0,0,1-11.984,2.136,29.534,29.534,0,0,1-10.655-1.849l-.206,1.472H255.713l-2.6-7.612-1.418,7.666-66.229.054-2.693-9.7-1.8,9.255-11.517.09-15.933.1-16.4.108-36.49,13.348,16.194-40.978-6.454.126-6.4,27.989-32.441.233,2.343-8.77c-5.1,5.449-19.075,5.673-19.075,5.673H51.03l-30.87.108L26.093,60.41h7.684l-3.725-4.928A12.316,12.316,0,0,1,27.961,49.7a20.645,20.645,0,0,1,.844-7.711,23.474,23.474,0,0,1,3.043-7.181,27.827,27.827,0,0,1,5.386-6.284,26.741,26.741,0,0,1,7.253-4.488,22.289,22.289,0,0,1,8.743-1.715l29.8.1-.422,1.9,79.1-6.939-6.643,7.451,10.9.449-.189,3.77.171-.853,28.527-3.321.664,3.052,9.291-10.772L239.861,12,228.344,25.465l9.255.054h0l9.066.054h0l13.2.09,3.2,8.214,1.8-8.214h26.624l-.26,2.092a34.515,34.515,0,0,1,11.966-2.092q12.459,0,19.2,6.831T328.738,52.6Z" transform="translate(-20.16 -12.02)"/>
      <path id="Path_226" data-name="Path 226" d="M220.266,32.136,230.346,20.35,208.39,24.111,186.568,49.362,190,31.993l-19.856,1.894-2.693,13.59-1.984,9.982-.449,2.262-1.454-12.756-1.723-15.26H146.514l5.951-5.727L83.9,32.091l.646-2.908-28.384-.09a19.371,19.371,0,0,0-7.711,1.49,23.339,23.339,0,0,0-6.284,3.9,24.138,24.138,0,0,0-4.731,5.521,20.583,20.583,0,0,0-2.693,6.284,14.757,14.757,0,0,0-.233,5.691,9.533,9.533,0,0,0,2.271,4.856,12.468,12.468,0,0,0,5.036,3.4,22.064,22.064,0,0,0,8.079,1.3h3.662c2.693,0,3.779,1.077,3.3,3.223s-2.181,3.214-5.108,3.2H30.322L26.13,86.462h30.4a25.708,25.708,0,0,0,8.932-1.481,24.39,24.39,0,0,0,6.912-3.9,21.7,21.7,0,0,0,4.8-5.386,20,20,0,0,0,2.54-6.167,15.673,15.673,0,0,0,.242-5.826,10.987,10.987,0,0,0-6.454-8.537,15.9,15.9,0,0,0-6.813-1.337H59.514q-3.9-.108-3.169-3.4.691-3.016,4.237-3.016H76.74l.952,1.8H88.463L87.9,51.454,79.819,88.581l21.993-.323,8.366-39.5H128.66l4.919-4.722-24.56,54.093,23.752-9.569,1.715-4.12h10.17l.431,4.12H178.83l3.878-19.65,7.738,19.65h35.009l10.772-56.427Zm-81.66,42.657,4.443-11.5.709,11.5Zm69.119,4.623-9.6-21.409,17.684-20.646Z" transform="translate(-20.771 -12.875)" fill="#187b2a"/>
      <path id="Path_227" data-name="Path 227" d="M321.517,60.583H349.4l-5.153,29.371H331.284L332,85.888a25.969,25.969,0,0,1-14.65,4.416A25.592,25.592,0,0,1,307.2,88.365a19.389,19.389,0,0,1-4.784-2.881l-.79,4.318H283.789l-6.131-15.036-1.329-4.246L272.739,89.8H253.43L264.049,33.42l18.465.054,6.975,17.872,3.3-17.845,19.12.063-.9,4.731a31.139,31.139,0,0,1,5.547-2.693,30.224,30.224,0,0,1,10.772-1.939q10.906,0,16.822,5.987t5.53,17.594h-19.3a7.181,7.181,0,0,0-1.8-4.309,6,6,0,0,0-4.336-1.445,8.285,8.285,0,0,0-5.915,2.5q-2.594,2.5-3.591,7.89c-.646,3.591-.395,6.221.781,7.863a5.709,5.709,0,0,0,4.982,2.486,8.276,8.276,0,0,0,4.057-1.077,9.578,9.578,0,0,0,3.4-3.411H320.18Z" transform="translate(-44.034 -14.212)" fill="#187b2a"/>
      <path id="Path_228" data-name="Path 228" d="M219.257,30.136,229.337,18.35,207.39,22.12,185.568,47.362,189,29.993l-19.856,1.894L164,57.7l-3.16-28.052H145.523l5.942-5.718L82.984,30.082l.557-2.522-28.375-.081a19.524,19.524,0,0,0-7.711,1.481,23.339,23.339,0,0,0-6.284,3.9,24.326,24.326,0,0,0-4.731,5.521,20.233,20.233,0,0,0-2.693,6.284,14.946,14.946,0,0,0-.233,5.682,9.569,9.569,0,0,0,2.271,4.9,12.567,12.567,0,0,0,5.045,3.411,22.074,22.074,0,0,0,8.079,1.293h3.653c2.693,0,3.788,1.068,3.312,3.223s-2.181,3.2-5.117,3.2H29.331l-4.2,18.438h30.4a25.924,25.924,0,0,0,8.932-1.472A24.353,24.353,0,0,0,71.4,79.471a21.05,21.05,0,0,0,4.8-5.386,19.811,19.811,0,0,0,2.549-6.167A15.628,15.628,0,0,0,79,62.1a10.987,10.987,0,0,0-6.454-8.546,15.9,15.9,0,0,0-6.813-1.329H58.55q-3.9-.1-3.169-3.4c.449-2.011,1.867-3.016,4.237-3.016H75.982l.745,1.382H87.5l-.6,2.262L78.819,86.581l21.993-.323,8.366-39.5H127.66l4.9-4.7L108.019,96.132l23.752-9.569,1.715-4.12h10.17l.431,4.12H177.83l3.878-19.65,7.738,19.65h35.008l10.772-56.436ZM137.606,72.793l4.443-11.5.709,11.5Zm69.119,4.632-9.6-21.418,17.7-20.646Z" transform="translate(-20.669 -12.67)" fill="#fff"/>
      <path id="Path_229" data-name="Path 229" d="M320.517,58.583H348.4l-5.153,29.371H330.284L331,83.888a25.969,25.969,0,0,1-14.65,4.416A25.565,25.565,0,0,1,306.2,86.365a19.388,19.388,0,0,1-4.784-2.881l-.79,4.318H282.789l-6.131-15.027-1.329-4.255L271.739,87.8H252.43L263.049,31.42l18.465.054,6.975,17.872,3.3-17.845,19.111.063-.9,4.74a30.861,30.861,0,0,1,5.547-2.693,30.269,30.269,0,0,1,10.772-1.939q10.906,0,16.813,5.987t5.539,17.594h-19.3a7.181,7.181,0,0,0-1.8-4.309,6,6,0,0,0-4.336-1.445A8.285,8.285,0,0,0,317.33,52q-2.594,2.513-3.591,7.89c-.637,3.591-.386,6.221.79,7.863a5.709,5.709,0,0,0,4.982,2.486,8.294,8.294,0,0,0,4.057-1.077,9.578,9.578,0,0,0,3.4-3.411H319.18Z" transform="translate(-43.932 -14.008)" fill="#fff"/>
    </g>
  </g>
</svg>
