<svg xmlns="http://www.w3.org/2000/svg" width="364" height="135.146" viewBox="0 0 364 135.146">
  <g id="Group_99" data-name="Group 99" transform="translate(-758.786 -90.854)">
    <g id="Group_81" data-name="Group 81" transform="translate(324.623 -95.257) rotate(-1)">
      <g id="Group_80" data-name="Group 80" transform="translate(444.491 199.824)">
        <path id="Path_230" data-name="Path 230" d="M964.362,460.644h-.009l-2.363-4.081-5.127-8.852A22.879,22.879,0,0,0,963.62,431.5c0-12.825-10.671-23.223-23.833-23.223l-35.135-.108-1.228,6.051c-7.771-6.4-24.251-6.259-24.251-6.259l-2.03-3.823-80.95,6.516-7.873-2.2-38.88-.066-1.407,5.835-3.455-5.768-35.348-.906-7.66,10.963c-6.781-12.817-25.667-13.382-25.667-13.382l-31.5-.989-5.161,17.945,1.749,2.228L632.6,461.334l5.22,8.445H668.32l.759-1.438L720.046,491.8l-11.439-21.752,7.737-.532,3.045-5.419,2.61,5.635,50.856.623,3.378-14.853c18.51.74,25.479-7.747,25.479-7.747L798.88,462.19l3.949,7.639,31.663.108,3.045-17.4,3.77.083c1.032,4.389,3.975,9.06,10.389,13.282,19.815,13.05,46.062,1.5,46.062,1.5l2.5,4.771,71.874,1.9ZM669.19,423.515l1.373.158a5.732,5.732,0,0,1,5.127,4.5l-1.459-.216c-.478-2.269-3.591-2.876-3.591-2.876l-.162,2.277-1.732-.208Z" transform="translate(-632.605 -404.14)"/>
        <path id="Path_231" data-name="Path 231" d="M698.1,433.046l-48.922-7.333,2.694-11.108s18.608.407,27.4.707c.224,0,.457,0,.682.017l.482.025C690.146,415.919,697.87,423.593,698.1,433.046Z" transform="translate(-635.399 -405.904)" fill="#187b2a"/>
        <path id="Path_232" data-name="Path 232" d="M960.721,433.648a15.849,15.849,0,0,0-16.058-15.631q-.384,0-.769.025a.659.659,0,0,0-.128,0l-30.475.208-3.5,14.218c-7.632-19.672-37.85-14.575-37.85-14.575l5.6-4.814-79.315,6.959c-2.128-1.438-7.255-1.646-7.255-1.646l-32.62.108-8.179,35.178-1.2-13.852-2.453.324-1.385-21.759-29.236-.848-10.178,15.922v.008l21.305,3.1v10.634h-5.11l5.11-10.634-20.536-1.9.538.84L695.1,455.465l-3.718-7.184a17.908,17.908,0,0,0,8.734-14.2L679,432.126a3.95,3.95,0,0,1-.017.84c-.35,2.852-3.487,5.039-6.427,4.7l-1.376-.158.026-.249.709-5.787-20.963-1.937-6.982,34.921h21.057l3.162-15.706L676.15,465.2l31.637,13.9-7.743-15.182,14.289.324,2.726-6.369h11.024v6.685h41.781l2.615-14.65S802,454.16,806.33,434.629H816.56l-6.768,29.824,20.946-.316,6.546-29.865H848.41s-4.794,7.259-3.487,13.411h3c2.53,11.033,15.306,19.423,30.68,19.423,11.357,0,21.3-4.573,26.723-11.407l-42.943-6.319,40.909,3.825,3.82-3.924-1.752,5.039.932.075,21,1.779,1.854-7.109,3.606,7.641,2.615.274c.008,0,.008,0,.017.008l11.281,1.2h.017l11.212,1.189-7.221-11.241A15.61,15.61,0,0,0,960.721,433.648Zm-176.653.549c-.3,2.4-3.435,4.174-6.409,3.825l-1.4-.158.026-.208,1.034-8.481,1.4.166C781.7,429.682,784.358,431.8,784.068,434.2Zm102.654,7.209c-.333,4.49-4.367,8.181-9.136,8.406-4.888.233-8.956-3.259-8.956-7.965,0-4.905,4.367-9.021,9.614-9.021C883.337,432.825,887.072,436.741,886.721,441.405Zm51.814-7.267c-.291,2.395-3.2,4.19-5.965,3.875l-1.29-.15.026-.208,1.034-8.481,1.3.15C936.39,429.649,938.826,431.736,938.535,434.138Z" transform="translate(-634.52 -405.647)" fill="#187b2a"/>
        <path id="Path_233" data-name="Path 233" d="M697.991,430.336,649.069,423l2.694-11.108s18.608.407,27.4.707c.224,0,.457,0,.682.017l.482.025C690.034,413.209,697.758,420.883,697.991,430.336Z" transform="translate(-635.38 -405.447)" fill="#00e94b"/>
        <path id="Path_234" data-name="Path 234" d="M1011,475.73H987.533l-3.608-8.281-.615-.723,24.2,3.417Z" transform="translate(-683.138 -414.707)" fill="#00e94b"/>
        <path id="Path_235" data-name="Path 235" d="M972.26,465.224l-1.28,8.065H949.969l2.012-10.933Z" transform="translate(-677.519 -413.97)" fill="#00e94b"/>
        <path id="Path_236" data-name="Path 236" d="M958.934,431.095a15.849,15.849,0,0,0-16.058-15.631q-.385,0-.769.025a.659.659,0,0,0-.128,0L911.5,415.7l-3.5,14.218c-7.631-19.672-37.85-14.575-37.85-14.575l5.6-4.814-79.315,6.959c-2.128-1.438-7.256-1.646-7.256-1.646l-32.62.108-8.179,35.178-1.2-13.852-2.453.324-1.384-21.759-29.236-.848-10.178,15.922v.008l21.305,3.1v10.634h-5.111l5.111-10.634-20.536-1.9.538.84-11.93,19.955-3.717-7.184a17.909,17.909,0,0,0,8.734-14.2l-21.117-1.954a3.959,3.959,0,0,1-.017.84c-.35,2.852-3.487,5.039-6.426,4.7l-1.376-.158.026-.249.709-5.787-20.963-1.937L642.179,461.9h21.057l3.162-15.706,7.965,16.454L706,476.55l-7.743-15.182,14.289.324,2.726-6.369H726.3v6.685h41.781l2.615-14.65s29.518,4.249,33.85-15.282h10.229L808,461.9l20.946-.316,6.546-29.865h11.127s-4.794,7.258-3.487,13.411h3c2.53,11.033,15.306,19.423,30.68,19.423,11.357,0,21.3-4.573,26.723-11.407L860.6,446.826l40.909,3.825,3.82-3.924-1.752,5.039.932.075,21,1.779,1.854-7.109,3.606,7.641,2.615.274c.008,0,.008,0,.017.008l11.281,1.2h.017L956.1,456.82l-7.221-11.241A15.609,15.609,0,0,0,958.934,431.095Zm-176.653.549c-.3,2.4-3.435,4.174-6.409,3.825l-1.4-.158.026-.208,1.034-8.481,1.4.166C779.914,427.129,782.571,429.249,782.281,431.644Zm102.654,7.209c-.333,4.49-4.367,8.181-9.136,8.406-4.888.233-8.956-3.259-8.956-7.965,0-4.905,4.367-9.021,9.614-9.021C881.55,430.272,885.285,434.188,884.935,438.852Zm51.814-7.267c-.291,2.395-3.2,4.19-5.965,3.875l-1.29-.15.026-.208,1.034-8.481,1.3.15C934.6,427.1,937.039,429.183,936.748,431.585Z" transform="translate(-634.219 -405.216)" fill="#00e94b"/>
        <path id="Path_237" data-name="Path 237" d="M681.743,432.106l-1.422-.216c-.466-2.27-3.5-2.877-3.5-2.877l-.161,2.33-1.685-.259.432-3.633,1.339.158A5.64,5.64,0,0,1,681.743,432.106Z" transform="translate(-639.747 -408.075)" fill="#187b2a"/>
        <path id="Path_238" data-name="Path 238" d="M681.768,432.739l-6.893-.657.083-.674V431.4l1.688.208.158-2.278s3.035.607,3.5,2.877l1.422.216A1.933,1.933,0,0,1,681.768,432.739Z" transform="translate(-639.73 -408.393)"/>
      </g>
    </g>
    <g id="Group_98" data-name="Group 98" transform="translate(706.737 33.353)">
      <path id="Path_239" data-name="Path 239" d="M416.049,104.848l-32.726,58.439-6.943,27.641-80.908,1.718.564-1.919H238.015l5.663-27.653-6.991.428-5.53,26.81-30.942-.108-4.309-4.483,5.129-24.126L188.728,161l-5.922,28.941-34.872.035-2.948-3.228a38.1,38.1,0,0,1-17.994,5.312,36.087,36.087,0,0,1-15.116-2.538l-.41,2.346-59.416-.445,16.52-66.8,30.371-1.413-4.1,16.834c5.992-7.475,17.689-12.848,29.2-13.066,5.53-.1,9.8.3,14.1,2.32l.889-.663,87.285-6.464,1.517,3.1,48.374-4-1.605,2.015,39.326-2.059-.558,4.919,17.438-.558-1.23-2.39,22.521-4.213,13.834,17.95,9.228-14.331Z"/>
      <g id="Group_96" data-name="Group 96" transform="translate(60.885 118.842)">
        <path id="Path_240" data-name="Path 240" d="M573.523,178.119l-.977,3.986,20.364-.119-2.651,15.177-21.411.171-1.247,5.111,26.747-.227-3.053,17.523-46.9-.026,8.687-36.669,4.544-19.207,19.59-.942,29.078-1.247-2.643,15.177Z" transform="translate(-357.146 -153.022)" fill="#187b2a"/>
        <path id="Path_241" data-name="Path 241" d="M698.867,283.156l-1.343,8.461H675.482l2.111-11.47Z" transform="translate(-436.023 -224.324)" fill="#187b2a"/>
        <path id="Path_242" data-name="Path 242" d="M792.886,299.077H777.491l.052.087H752.929l-3.786-8.687-.645-.759L773.88,293.3l1.457,2.329.515-2.172,17.9,2.6Z" transform="translate(-479.959 -230.083)" fill="#187b2a"/>
        <path id="Path_243" data-name="Path 243" d="M234.123,171.5l4.937-4.745-80.952,7.3,1.038,1.928.8,1.474a33.867,33.867,0,0,0-17.863-4.815c-18.177,0-33.311,12.525-33.311,27.449a20.97,20.97,0,0,0,.811,5.809l-12.15,1.169,9.656-39.722-19.625,1.108L74.234,224.335l48.5.026.567-3.253a35.058,35.058,0,0,0,16.5,3.218c16.52-.689,30.493-11.915,31.645-25.583a20.831,20.831,0,0,0-1.317-9.385h6.69l-.5,2.233-6.411,29.054,2.059-.035,19.32-.3,6.681-31.331h17.209l.139.262h10.441l-.5,2.233-6.411,29.054,2.058-.035,19.32-.3,6.681-31.331h11.356L288,166.637Zm-84.746,27.092a9.823,9.823,0,0,1-9.324,8.818,8.837,8.837,0,0,1-6.8-2.591,8.138,8.138,0,0,1-2.338-5.765,9.737,9.737,0,0,1,9.813-9.464,8.561,8.561,0,0,1,7.885,4.815A8.309,8.309,0,0,1,149.377,198.587Z" transform="translate(-74.234 -156.022)" fill="#187b2a"/>
        <path id="Path_244" data-name="Path 244" d="M752.305,150.686,741.394,170.12l-15.1-19.843-16.808,2.852,2.041,2.652c-.236,0-.462.009-.7.026a.685.685,0,0,0-.131,0l-31.1.218-7.946,37.393,22.233,2.39,1.893-7.458,1.37,2.983,2.311,5.033.567.061,2.1.227c.009,0,.009,0,.018.009l11.513,1.256h.018l11.443,1.247-7.37-11.793a16.375,16.375,0,0,0,9.69-10.911l5.853,7.615-3.672,15.569,18.273,1.963,5.373-18.692,24.981-42.931Zm-46.943,22.006c-.279,2.372-2.94,4.178-5.6,4.091a4.551,4.551,0,0,1-.488-.026l-1.317-.157.026-.218,1.055-8.9,1.326.157a5.752,5.752,0,0,1,4.876,3.637A3.487,3.487,0,0,1,705.362,172.693Z" transform="translate(-433.717 -139.984)" fill="#187b2a"/>
      </g>
      <g id="Group_97" data-name="Group 97" transform="translate(59.14 116.225)">
        <path id="Path_245" data-name="Path 245" d="M694.485,276.581l-1.343,8.461H671.1l2.111-11.47Z" transform="translate(-431.641 -217.751)" fill="#fff"/>
        <path id="Path_246" data-name="Path 246" d="M788.5,292.5H773.109l.052.087H748.547l-3.785-8.687-.645-.759,25.382,3.585,1.457,2.329.515-2.172,17.9,2.6Z" transform="translate(-475.577 -223.51)" fill="#fff"/>
        <path id="Path_247" data-name="Path 247" d="M229.743,164.925l4.937-4.745-80.952,7.3,1.038,1.928.8,1.474a33.872,33.872,0,0,0-17.863-4.814c-18.177,0-33.311,12.525-33.311,27.449a20.956,20.956,0,0,0,.811,5.809L93.055,200.5l9.656-39.722-19.625,1.108L69.854,217.765l48.5.026.567-3.253a35.062,35.062,0,0,0,16.5,3.218c16.52-.689,30.493-11.915,31.645-25.583a20.83,20.83,0,0,0-1.317-9.385h6.69l-.5,2.233-6.411,29.054,2.059-.035,19.32-.3,6.681-31.33H210.8l.139.262h10.441l-.5,2.233-6.411,29.054,2.058-.035,19.32-.3L242.53,182.3h11.356l29.734-22.233ZM145,192.017a9.822,9.822,0,0,1-9.324,8.818,8.838,8.838,0,0,1-6.8-2.591,8.14,8.14,0,0,1-2.337-5.765,9.737,9.737,0,0,1,9.813-9.464,8.561,8.561,0,0,1,7.885,4.815A8.3,8.3,0,0,1,145,192.017Z" transform="translate(-69.854 -149.452)" fill="#fff"/>
        <path id="Path_248" data-name="Path 248" d="M747.925,144.116,737.014,163.55l-15.1-19.843-16.808,2.852,2.041,2.652c-.236,0-.462.009-.7.026a.655.655,0,0,0-.131,0l-31.1.218-7.946,37.392,22.233,2.39,1.893-7.458,1.37,2.983,2.311,5.033.567.061,2.1.227c.009,0,.009,0,.018.009l11.513,1.256h.018l11.443,1.247-7.37-11.793a16.377,16.377,0,0,0,9.69-10.911l5.853,7.615-3.672,15.569,18.273,1.963,5.373-18.692,24.981-42.931Zm-46.943,22.006c-.279,2.372-2.94,4.178-5.6,4.091a4.569,4.569,0,0,1-.489-.026l-1.317-.157.026-.218,1.055-8.9,1.326.157a5.752,5.752,0,0,1,4.876,3.637A3.488,3.488,0,0,1,700.982,166.123Z" transform="translate(-429.337 -133.414)" fill="#fff"/>
        <path id="Path_249" data-name="Path 249" d="M568.042,172.176l-.977,3.986,20.364-.119-2.651,15.177-21.411.171L562.12,196.5l26.747-.227L585.814,213.8l-46.9-.026,8.687-36.669L552.15,157.9l19.59-.942,29.078-1.247-2.643,15.177Z" transform="translate(-352.104 -146.829)" fill="#fff"/>
      </g>
    </g>
  </g>
</svg>
