<svg xmlns="http://www.w3.org/2000/svg" width="413.84" height="197.016" viewBox="0 0 413.84 197.016">
  <g id="Group_86" data-name="Group 86" transform="translate(-120.043 -323.13)">
    <path id="Path_215" data-name="Path 215" d="M271.576,450.66l30.891,1.181,9.937-80.419-40.828,45.4V450.66l30.891,20.266-7.214,24.4v11.805l-30.169,11.018h32.071l13.773-17.314L324.5,468.958l-18.1-25.972,59.026-48.2,166.455-50.172-309.3,27.742-3.542-24.4L179.495,325.13l-43.089,9.641L124.6,346.38l6.886,2.164-9.444,4.329,18.3,9.838,36.006,9.051,11.805-4.722L220,415.453" fill="none" stroke="#242735" stroke-linejoin="round" stroke-width="4"/>
    <path id="Path_216" data-name="Path 216" d="M349.486,495.253l-27.546-24.988-4.329-18.3,36.836-36.114Z" transform="translate(-99.947 -46.364)" fill="none" stroke="#242735" stroke-linejoin="round" stroke-width="4"/>
    <line id="Line_3" data-name="Line 3" x1="66.465" y1="29.281" transform="translate(298.964 365.501)" fill="none" stroke="#242735" stroke-linejoin="round" stroke-width="4"/>
    <line id="Line_4" data-name="Line 4" x2="20.658" y2="6.837" transform="translate(250.918 426.836)" fill="none" stroke="#242735" stroke-linejoin="round" stroke-width="4"/>
    <path id="Path_217" data-name="Path 217" d="M418.124,543.9v20.728l34.17,23.127" transform="translate(-151.314 -111.803)" fill="none" stroke="#242735" stroke-linejoin="round" stroke-width="4"/>
    <line id="Line_5" data-name="Line 5" x2="3.613" y2="24.887" transform="translate(222.584 372.351)" fill="none" stroke="#242735" stroke-linejoin="round" stroke-width="4"/>
    <path id="Path_218" data-name="Path 218" d="M288.142,371.809l-30.891,19.085,33.378-1.948" transform="translate(-69.099 -23.856)" fill="none" stroke="#242735" stroke-linejoin="round" stroke-width="4"/>
    <path id="Path_219" data-name="Path 219" d="M199.565,345.664l-50.517,4.192-21.774,7.018" transform="translate(-2.673 -10.494)" fill="none" stroke="#242735" stroke-linejoin="round" stroke-width="4"/>
    <path id="Path_220" data-name="Path 220" d="M141.358,373.017l17.249,6.558,25.053-6.558L204.6,387.449l-22.12-10.759-32.268,10.494" transform="translate(-9.871 -24.473)" fill="none" stroke="#242735" stroke-linejoin="round" stroke-width="4"/>
    <line id="Line_6" data-name="Line 6" x1="22.037" y2="1.968" transform="translate(302.467 468.958)" fill="none" stroke="#242735" stroke-linejoin="round" stroke-width="4"/>
    <line id="Line_7" data-name="Line 7" x1="2.793" y1="0.39" transform="translate(303.609 442.596)" fill="none" stroke="#242735" stroke-linejoin="round" stroke-width="4"/>
    <line id="Line_8" data-name="Line 8" y1="6.886" x2="4.766" transform="translate(266.81 445.938)" fill="none" stroke="#242735" stroke-linejoin="round" stroke-width="4"/>
    <line id="Line_9" data-name="Line 9" x2="1.902" y2="11.018" transform="translate(295.252 507.128)" fill="none" stroke="#242735" stroke-linejoin="round" stroke-width="4"/>
    <path id="Path_221" data-name="Path 221" d="M444.479,673.83l6.657-4.525L436.5,665.566l-9.432,8.559,11.117-3.935,6.3,3.64,1.451,9.181" transform="translate(-155.884 -173.981)" fill="none" stroke="#242735" stroke-linejoin="round" stroke-width="4"/>
    <line id="Line_10" data-name="Line 10" x1="1.685" y1="4.624" transform="translate(280.615 491.585)" fill="none" stroke="#242735" stroke-linejoin="round" stroke-width="4"/>
    <path id="Path_222" data-name="Path 222" d="M363.368,578.244,344.807,599.3V630.45l12.2,10.887-12.232-24.029" transform="translate(-113.828 -129.355)" fill="none" stroke="#242735" stroke-linejoin="round" stroke-width="4"/>
    <path id="Path_223" data-name="Path 223" d="M322.707,540.133l-17.3,24.668,19.282,41.286-9.641-36.039,16.6-21.8" transform="translate(-93.709 -109.878)" fill="none" stroke="#242735" stroke-linejoin="round" stroke-width="4"/>
    <line id="Line_11" data-name="Line 11" x1="9.641" y1="9.772" transform="translate(221.338 460.17)" fill="none" stroke="#242735" stroke-linejoin="round" stroke-width="4"/>
    <line id="Line_12" data-name="Line 12" x2="11.191" y2="11.042" transform="translate(211.697 454.923)" fill="none" stroke="#242735" stroke-linejoin="round" stroke-width="4"/>
  </g>
</svg>
