<?xml version="1.0" encoding="UTF-8"?>
<!DOCTYPE svg PUBLIC "-//W3C//DTD SVG 1.1//EN" "http://www.w3.org/Graphics/SVG/1.1/DTD/svg11.dtd">
<svg version="1.1" id="Layer_1" xmlns="http://www.w3.org/2000/svg" xmlns:xlink="http://www.w3.org/1999/xlink" x="0px" y="0px" width="16px" height="16px" viewBox="0 0 16 16" enable-background="new 0 0 16 16" xml:space="preserve">
  <g id="main">
    <g id="icon">
      <path d="M2.001,0.009961L1.768,0.05703L1.67,0.07676L1.587,0.1326L1.396,0.2611L1.316,0.3156L1.261,0.3963L1.133,0.5869L1.077,0.6697L1.057,0.7676L1.01,1.001L1,1.05L1,1.1L1,13.9L1,13.95L1.01,14L1.057,14.23L1.077,14.33L1.133,14.41L1.261,14.6L1.316,14.68L1.396,14.74L1.587,14.87L1.67,14.92L1.768,14.94L2.001,14.99L2.05,15L2.1,15L7.805,15L7.795,14.93L7.832,14.62L7.949,14.33L8.131,14L2.15,14L2.063,13.98L2.036,13.96L2.018,13.94L2,13.85L2,1.15L2.018,1.063L2.036,1.036L2.063,1.018L2.15,1L9.096,1L9.34,1.021L9.468,1.057L9.722,1.229L12.71,4.216L12.72,4.225L12.86,4.233L13.4,4.329L13.91,4.485L13.97,4.512L13.96,4.469L13.89,4.207L13.87,4.148L13.84,4.095L13.71,3.861L13.69,3.817L13.65,3.778L13.45,3.547L13.44,3.534L13.43,3.521L10.4,0.4879L10.36,0.4539L10.32,0.427L9.962,0.1844L9.896,0.1402L9.821,0.1184L9.57,0.0459L9.522,0.03223L9.473,0.02813L9.158,0.001758L9.138,0L9.117,0L2.1,0L2.05,0zz" fill="#FFFFFF"/>
      <path d="M9,4L9.069,4.337L9.249,4.624L9.505,4.843L9.77,4.961L10.49,4.567L11.37,4.295L12.31,4.201L12.86,4.233L13.2,4.294L13.2,4L10.05,4L10,3.965L10,1L9,1zz" fill="#FFFFFF"/>
      <path d="M3.183,3.113L3.01,3.402L3.059,3.735L3.308,3.962L3.5,4L7.5,4L7.817,3.887L7.99,3.598L7.941,3.265L7.692,3.038L7.5,3L3.5,3zz" fill="#FFFFFF"/>
      <path d="M3.183,5.113L3.01,5.402L3.059,5.735L3.308,5.962L3.5,6L7.5,6L7.817,5.887L7.99,5.598L7.941,5.265L7.692,5.038L7.5,5L3.5,5zz" fill="#FFFFFF"/>
      <path d="M3.183,7.113L3.01,7.402L3.059,7.735L3.308,7.962L3.5,8L7.732,8L7.739,7.924L8.011,7.049L8.038,7L3.5,7zz" fill="#FFFFFF"/>
      <path d="M3.183,9.113L3.01,9.402L3.059,9.735L3.308,9.962L3.5,10L7.8,10L7.747,9.836L7.67,9.356L7.652,9L3.5,9zz" fill="#FFFFFF"/>
      <path d="M3.183,11.11L3.01,11.4L3.059,11.73L3.308,11.96L3.5,12L8.89,12L8.501,11.55L8.187,11L3.5,11zz" fill="#FFFFFF"/>
    </g>
    <g id="overlay">
      <path d="M12.3063,5.2005c2.0224,0,3.6619,1.6395,3.6619,3.6619s-1.6395,3.6619,-3.6619,3.6619s-3.6619,-1.6395,-3.6619,-3.6619S10.2839,5.2005,12.3063,5.2005zM14.52,12.5493c-0.5746,0.3474,-1.2382,0.5621,-1.9484,0.6029l0.7532,2.6814c0.0439,0.1562,0.2389,0.2085,0.355,0.0952l0.8034,-0.7835l1.1221,-0.0133c0.1622,-0.0019,0.2632,-0.1767,0.1839,-0.3182L14.52,12.5493zM10.1005,12.5316l-1.2791,2.2823c-0.0793,0.1415,0.0217,0.3163,0.1839,0.3182l1.1221,0.0133l0.8034,0.7835c0.1161,0.1132,0.3111,0.0609,0.355,-0.0952l0.754,-2.6842C11.332,13.1025,10.6715,12.883,10.1005,12.5316z" fill="#F7DA8E"/>
    </g>
  </g>
</svg>
